<?xml version="1.0" encoding="utf-8"?>
<!-- Generator: Adobe Illustrator 21.0.0, SVG Export Plug-In . SVG Version: 6.00 Build 0)  -->
<svg version="1.1" id="Layer_1" xmlns="http://www.w3.org/2000/svg" xmlns:xlink="http://www.w3.org/1999/xlink" x="0px" y="0px"
	 viewBox="0 0 5296 2592" style="enable-background:new 0 0 5296 2592;" xml:space="preserve">
<style type="text/css">
	.st0{fill:#7DA4DD;}
	.st1{fill:#FFFFFF;}
	.st2{fill:none;}
</style>
<g id="Applied_Graphics">
	<g>
		<g>
			<path d="M807,2469.1c-2.7,9.4-7,17.3-12.9,23.9c-5.9,6.5-13.6,11.5-23.2,15s-21.3,5.2-35.1,5.2c-8.6,0-16.9-0.9-25-2.7
				c-8.1-1.9-15.4-4.7-21.9-8.6c-6.5-3.9-11.9-8.8-16.2-14.8c-4.3-6-6.8-13.2-7.4-21.6h20.8c1.1,5.9,3.2,10.9,6.4,14.8
				c3.2,4,7,7.2,11.5,9.6c4.5,2.4,9.5,4.2,15,5.3s11.1,1.7,16.8,1.7c19.3,0,33.3-5.1,41.9-15.3s12.9-24.8,12.9-44l-0.1-21.4h-0.4
				c-4.8,9.8-11.9,17.6-21.2,23.5c-9.3,5.9-20.3,8.9-32.8,8.9c-13.6,0-25.3-2.1-34.9-6.3c-9.7-4.2-17.6-9.9-23.9-17.3
				c-6.3-7.3-10.8-16-13.7-25.9c-2.9-9.9-4.3-20.4-4.3-31.6c0-10.8,1.7-21,5.1-30.7s8.4-18.1,14.8-25.4c6.5-7.2,14.5-12.9,24.1-17.1
				c9.6-4.2,20.5-6.3,32.8-6.3c6.4,0,12.4,0.8,18,2.4c5.6,1.6,10.7,3.9,15.3,6.9c4.6,3,8.7,6.4,12.4,10.2c3.6,3.9,6.4,7.9,8.4,12.2
				h0.5v-27.2h20.6v144.9C811.1,2449.3,809.8,2459.8,807,2469.1z M759.5,2427.1c6.8-3.6,12.5-8.2,17.1-14.1
				c4.6-5.8,8.1-12.5,10.4-20c2.3-7.6,3.5-15.3,3.5-23.2c0-7.7-1-15.5-3-23.2c-2-7.8-5.2-14.8-9.6-21.1s-10-11.4-17-15.3
				c-6.9-3.9-15.3-5.8-25.2-5.8c-9.9,0-18.3,1.9-25.4,5.6c-7,3.8-12.8,8.7-17.5,14.8c-4.6,6.1-8,13.1-10.1,20.9
				c-2.1,7.8-3.1,15.8-3.1,24c0,7.9,1.1,15.7,3.3,23.2c2.2,7.5,5.6,14.2,10.2,20s10.4,10.5,17.4,14.1c7.1,3.6,15.4,5.3,25.1,5.3
				C744.8,2432.4,752.7,2430.7,759.5,2427.1z"/>
			<path d="M939.5,2292.5v37h0.6c5.2-12.8,13.4-22.7,24.5-29.6c11.1-6.8,24.3-10,39.7-9.3v19.1c-9.4-0.4-18,0.8-25.7,3.5
				s-14.3,6.7-19.9,11.8s-10,11.2-13,18.2c-3.1,7-4.6,14.8-4.6,23.1v84.3h-20.6v-158.1H939.5z"/>
		</g>
		<g>
			<path d="M1102.6,2398.6c2.1,7.5,5.5,14.1,10.1,20s10.5,10.8,17.5,14.7s15.5,5.8,25.4,5.8c15.2,0,27.1-3.7,35.7-11
				c8.6-7.3,14.6-17.1,17.9-29.3h20.6c-4.4,17.9-12.5,31.8-24.2,41.5s-28.4,14.6-49.9,14.6c-13.4,0-25-2.2-34.8-6.6
				c-9.8-4.4-17.7-10.4-23.9-18.1c-6.1-7.6-10.7-16.5-13.7-26.6s-4.4-20.8-4.4-32c0-10.4,1.5-20.6,4.4-30.6c3-10,7.5-18.9,13.6-26.8
				c6.2-7.9,14.1-14.2,23.9-19c9.8-4.8,21.3-7.2,34.7-7.2c13.6,0,25.2,2.5,34.9,7.7c9.7,5.1,17.5,11.8,23.5,20.1s10.4,17.8,13,28.5
				s3.7,21.6,3.3,32.6h-130.8C1099.4,2384,1100.5,2391.2,1102.6,2398.6z M1205.5,2339.7c-2.5-6.7-6.1-12.7-10.7-17.9
				c-4.6-5.2-10.2-9.4-16.8-12.6c-6.6-3.2-14.1-4.7-22.4-4.7c-8.6,0-16.2,1.6-22.8,4.7c-6.6,3.2-12.2,7.3-16.8,12.6
				c-4.6,5.2-8.3,11.2-11.1,18.1c-2.8,6.8-4.6,13.9-5.4,21h110.2C1209.4,2353.5,1208,2346.4,1205.5,2339.7z"/>
			<path d="M1467,2469.1c-2.7,9.4-7,17.3-12.9,23.9c-5.9,6.5-13.6,11.5-23.2,15c-9.6,3.5-21.2,5.2-35.1,5.2c-8.6,0-16.9-0.9-25-2.7
				c-8.1-1.9-15.4-4.7-21.9-8.6c-6.5-3.9-11.9-8.8-16.2-14.8s-6.8-13.2-7.4-21.6h20.8c1.1,5.9,3.2,10.9,6.4,14.8
				c3.2,4,7,7.2,11.6,9.6c4.5,2.4,9.5,4.2,15,5.3s11.1,1.7,16.8,1.7c19.3,0,33.3-5.1,41.8-15.3c8.6-10.2,12.9-24.8,12.9-44
				l-0.1-21.4h-0.4c-4.8,9.8-11.9,17.6-21.2,23.5s-20.3,8.9-32.8,8.9c-13.6,0-25.3-2.1-34.9-6.3c-9.7-4.2-17.6-9.9-23.9-17.3
				c-6.3-7.3-10.8-16-13.7-25.9s-4.3-20.4-4.3-31.6c0-10.8,1.7-21,5.1-30.7c3.4-9.7,8.4-18.1,14.8-25.4c6.5-7.2,14.5-12.9,24.1-17.1
				c9.6-4.2,20.5-6.3,32.8-6.3c6.4,0,12.4,0.8,18,2.4c5.6,1.6,10.7,3.9,15.3,6.9s8.7,6.4,12.4,10.2c3.6,3.9,6.4,7.9,8.4,12.2h0.5
				v-27.2h20.6v144.9C1471.1,2449.3,1469.7,2459.8,1467,2469.1z M1419.5,2427.1c6.8-3.6,12.5-8.2,17.2-14.1
				c4.6-5.8,8.1-12.5,10.4-20c2.3-7.6,3.5-15.3,3.5-23.2c0-7.7-1-15.5-3-23.2c-2-7.8-5.2-14.8-9.6-21.1c-4.4-6.3-10-11.4-17-15.3
				c-6.9-3.9-15.4-5.8-25.2-5.8c-9.9,0-18.3,1.9-25.4,5.6c-7.1,3.8-12.8,8.7-17.5,14.8c-4.6,6.1-7.9,13.1-10,20.9
				c-2.1,7.8-3.1,15.8-3.1,24c0,7.9,1.1,15.7,3.3,23.2s5.6,14.2,10.2,20c4.6,5.8,10.4,10.5,17.4,14.1s15.4,5.3,25,5.3
				C1404.8,2432.4,1412.7,2430.7,1419.5,2427.1z"/>
			<path d="M1686.4,2294.9c10,4.5,18.4,10.5,25.2,18.1s12,16.4,15.5,26.5s5.3,20.9,5.3,32.3c0,11.4-1.8,22.2-5.3,32.3
				s-8.7,18.9-15.5,26.5c-6.8,7.5-15.2,13.5-25.2,17.9s-21.5,6.6-34.4,6.6c-13,0-24.4-2.2-34.4-6.6c-10-4.4-18.4-10.4-25.2-17.9
				s-12-16.4-15.5-26.5s-5.2-20.8-5.2-32.3c0-11.4,1.7-22.2,5.2-32.3s8.7-18.9,15.5-26.5s15.2-13.6,25.2-18.1s21.4-6.7,34.4-6.7
				C1664.9,2288.2,1676.4,2290.4,1686.4,2294.9z M1625.9,2310.3c-7.5,3.9-13.7,9-18.7,15.3s-8.7,13.5-11.2,21.6s-3.8,16.3-3.8,24.6
				c0,8.4,1.3,16.6,3.8,24.6c2.5,8.1,6.2,15.3,11.2,21.6s11.2,11.4,18.7,15.3c7.5,3.9,16.2,5.8,26.1,5.8c9.9,0,18.6-1.9,26.1-5.8
				c7.5-3.9,13.7-9,18.6-15.3c5-6.3,8.7-13.5,11.2-21.6s3.8-16.2,3.8-24.6c0-8.4-1.3-16.6-3.8-24.6c-2.5-8.1-6.3-15.3-11.2-21.6
				c-5-6.3-11.2-11.4-18.6-15.3c-7.5-3.9-16.2-5.8-26.1-5.8C1642.1,2304.4,1633.4,2306.4,1625.9,2310.3z"/>
			<path d="M1851.9,2292.5v37h0.6c5.2-12.8,13.4-22.7,24.5-29.6c11.1-6.8,24.3-10,39.7-9.3v19.1c-9.5-0.4-18,0.8-25.7,3.5
				s-14.4,6.7-20,11.8s-9.9,11.2-13,18.2s-4.6,14.8-4.6,23.1v84.3h-20.6v-158.1H1851.9z"/>
			<path d="M2008.4,2293l56,134.5l52.4-134.5h20.8l-73.8,181.7c-3.1,6.7-6,12.3-8.6,16.7s-5.5,7.9-8.7,10.4
				c-3.2,2.6-6.9,4.4-11.2,5.5s-9.7,1.7-16.3,1.7c-4.2-0.2-7.4-0.4-9.7-0.4c-2.3-0.1-4.3-0.5-6.1-1.1v-16.2c2.4,0.4,4.8,0.7,7.1,1.1
				c2.3,0.3,4.7,0.4,7.1,0.4c4.6,0,8.4-0.6,11.4-1.8s5.5-2.9,7.8-5.1c2.2-2.1,4-4.7,5.6-7.8c1.5-3.1,3.2-6.4,5-10.1l7.2-17.8
				l-67.9-157.2L2008.4,2293L2008.4,2293z"/>
			<path d="M2518.9,2450.6l0.1-30h-0.6c-2.2,5.1-5.4,9.8-9.8,14.1c-4.3,4.3-9.2,7.9-14.7,10.9c-5.5,2.9-11.4,5.2-17.7,6.9
				c-6.3,1.6-12.5,2.4-18.7,2.4c-13,0-24.3-2.2-33.9-6.6c-9.6-4.4-17.6-10.4-24-18.1c-6.4-7.6-11.1-16.5-14.2-26.6
				c-3.1-10.1-4.6-20.8-4.6-32s1.5-21.9,4.6-31.9c3.1-10.1,7.8-19,14.2-26.6s14.4-13.7,24-18.2s20.9-6.7,33.9-6.7
				c6.4,0,12.7,0.7,18.7,2.1c6.1,1.4,11.7,3.6,17,6.6s10,6.6,14.1,10.8c4.1,4.3,7.2,9.3,9.4,15h0.5v-90.4h20.6v218.3H2518.9z
				 M2404.6,2396.1c2.1,8.1,5.4,15.3,9.9,21.6s10.3,11.5,17.4,15.5c7.1,4,15.6,6,25.5,6c11,0,20.4-2,28-6s13.8-9.1,18.5-15.5
				c4.8-6.3,8.2-13.5,10.3-21.6s3.2-16.2,3.2-24.3s-1.1-16.3-3.2-24.3c-2.1-8.1-5.5-15.3-10.3-21.6c-4.7-6.3-10.9-11.5-18.5-15.5
				s-16.9-6-28-6c-9.9,0-18.4,2-25.5,6s-12.8,9.1-17.4,15.5c-4.5,6.3-7.8,13.5-9.9,21.6c-2.1,8.1-3.2,16.2-3.2,24.3
				C2401.5,2379.9,2402.5,2388.1,2404.6,2396.1z"/>
			<path d="M2625.1,2418.1h27.8v32.5h-27.8V2418.1z"/>
			<path d="M2964,2232.3v137l94.3-76.4h27.7l-72.5,58.4l77.5,99.4h-26l-67.2-85.9l-33.6,26v59.9h-20.6v-218.3L2964,2232.3
				L2964,2232.3z"/>
			<path d="M3192.4,2398.6c2.1,7.5,5.5,14.1,10.1,20s10.5,10.8,17.5,14.7s15.5,5.8,25.4,5.8c15.2,0,27.1-3.7,35.7-11
				s14.5-17.1,17.9-29.3h20.6c-4.4,17.9-12.5,31.8-24.2,41.5s-28.4,14.6-49.9,14.6c-13.4,0-25-2.2-34.8-6.6
				c-9.8-4.4-17.7-10.4-23.9-18.1c-6.2-7.6-10.7-16.5-13.7-26.6s-4.4-20.8-4.4-32c0-10.4,1.5-20.6,4.4-30.6c3-10,7.5-18.9,13.7-26.8
				c6.1-7.9,14.1-14.2,23.9-19s21.3-7.2,34.7-7.2c13.6,0,25.2,2.5,34.9,7.7c9.7,5.1,17.5,11.8,23.6,20.1c6,8.3,10.4,17.8,13,28.5
				s3.7,21.6,3.3,32.6h-130.8C3189.3,2384,3190.3,2391.2,3192.4,2398.6z M3295.3,2339.7c-2.5-6.7-6.1-12.7-10.7-17.9
				s-10.2-9.4-16.8-12.6c-6.6-3.2-14.1-4.7-22.4-4.7c-8.6,0-16.2,1.6-22.8,4.7c-6.6,3.2-12.2,7.3-16.8,12.6
				c-4.6,5.2-8.3,11.2-11,18.1c-2.8,6.8-4.6,13.9-5.4,21h110.2C3299.2,2353.5,3297.9,2346.4,3295.3,2339.7z"/>
			<path d="M3432.7,2398.6c2.1,7.5,5.4,14.1,10.1,20c4.6,5.9,10.5,10.8,17.5,14.7s15.5,5.8,25.5,5.8c15.2,0,27.1-3.7,35.7-11
				s14.5-17.1,17.9-29.3h20.6c-4.4,17.9-12.5,31.8-24.2,41.5c-11.8,9.7-28.4,14.6-49.9,14.6c-13.4,0-25-2.2-34.8-6.6
				c-9.8-4.4-17.8-10.4-23.9-18.1c-6.2-7.6-10.7-16.5-13.6-26.6c-3-10.1-4.4-20.8-4.4-32c0-10.4,1.5-20.6,4.4-30.6
				c3-10,7.5-18.9,13.6-26.8c6.2-7.9,14.1-14.2,23.9-19s21.3-7.2,34.7-7.2c13.6,0,25.2,2.5,34.9,7.7c9.7,5.1,17.5,11.8,23.5,20.1
				c6.1,8.3,10.4,17.8,13,28.5s3.7,21.6,3.3,32.6h-130.8C3429.5,2384,3430.6,2391.2,3432.7,2398.6z M3535.6,2339.7
				c-2.5-6.7-6.1-12.7-10.7-17.9s-10.2-9.4-16.8-12.6c-6.6-3.2-14.1-4.7-22.4-4.7c-8.6,0-16.2,1.6-22.8,4.7
				c-6.6,3.2-12.2,7.3-16.8,12.6c-4.6,5.2-8.3,11.2-11,18.1c-2.8,6.8-4.6,13.9-5.4,21h110.2
				C3539.5,2353.5,3538.2,2346.4,3535.6,2339.7z"/>
			<path d="M3678.1,2292.8v27.2h0.5c4-9.6,11-17.3,21.1-23.1s21.2-8.7,33.4-8.7c11.9,0,21.8,1.4,29.9,4.3c8,2.9,14.5,6.9,19.3,12.1
				c4.9,5.2,8.3,11.6,10.2,19.1c2,7.5,3,16,3,25.4v101.5h-20.6v-98.5c0-6.7-0.7-13-2-18.8s-3.6-10.8-7-15.1
				c-3.3-4.3-7.8-7.6-13.4-10.1s-12.6-3.7-21-3.7s-15.8,1.4-22.3,4.1c-6.5,2.8-12,6.5-16.6,11.3c-4.5,4.8-8,10.5-10.5,17.1
				s-3.9,13.8-4.1,21.6v92h-20.6v-157.8L3678.1,2292.8L3678.1,2292.8z"/>
			<path d="M3919.2,2398.6c2.1,7.5,5.5,14.1,10.1,20s10.5,10.8,17.5,14.7c7.1,3.9,15.5,5.8,25.4,5.8c15.2,0,27.1-3.7,35.7-11
				s14.5-17.1,17.9-29.3h20.6c-4.4,17.9-12.5,31.8-24.2,41.5c-11.8,9.7-28.4,14.6-49.9,14.6c-13.4,0-25-2.2-34.8-6.6
				c-9.8-4.4-17.7-10.4-23.9-18.1c-6.2-7.6-10.7-16.5-13.7-26.6s-4.4-20.8-4.4-32c0-10.4,1.5-20.6,4.4-30.6c3-10,7.5-18.9,13.6-26.8
				c6.1-7.9,14.1-14.2,23.9-19s21.3-7.2,34.7-7.2c13.6,0,25.2,2.5,34.9,7.7c9.7,5.1,17.5,11.8,23.6,20.1c6,8.3,10.4,17.8,13,28.5
				s3.7,21.6,3.3,32.6H3916C3916,2384,3917.1,2391.2,3919.2,2398.6z M4022.1,2339.7c-2.5-6.7-6.1-12.7-10.7-17.9
				s-10.2-9.4-16.8-12.6c-6.6-3.2-14.1-4.7-22.4-4.7c-8.6,0-16.2,1.6-22.8,4.7c-6.6,3.2-12.2,7.3-16.8,12.6
				c-4.6,5.2-8.3,11.2-11,18.1c-2.8,6.8-4.6,13.9-5.4,21h110.2C4026,2353.5,4024.7,2346.4,4022.1,2339.7z"/>
			<path d="M4141.9,2450.5c0,4.5-0.6,8.9-1.8,13.3c-1.2,4.4-3.1,8.5-5.5,12.2c-2.4,3.8-5.5,7.1-9.2,9.9c-3.7,2.9-7.9,4.9-12.8,6.1
				v-13c2.8-0.8,5.2-2.3,7.1-4.6c2-2.2,3.6-4.7,4.9-7.5s2.3-5.6,2.8-8.6s0.7-5.6,0.5-7.8h-13.8v-32.4h27.8V2450.5z"/>
		</g>
		<g>
			<path d="M4470.4,2450.6l0.1-30h-0.6c-2.2,5.1-5.5,9.8-9.8,14.1s-9.2,7.9-14.7,10.9c-5.5,2.9-11.4,5.2-17.7,6.9
				c-6.2,1.6-12.5,2.4-18.7,2.4c-13,0-24.3-2.2-33.9-6.6c-9.6-4.4-17.6-10.4-24-18.1c-6.4-7.6-11.1-16.5-14.2-26.6s-4.6-20.8-4.6-32
				s1.5-21.9,4.6-31.9c3.1-10.1,7.8-19,14.2-26.6c6.4-7.6,14.4-13.7,24-18.2s20.9-6.7,33.9-6.7c6.4,0,12.6,0.7,18.7,2.1
				c6.1,1.4,11.7,3.6,17,6.6s10,6.6,14.1,10.8c4.1,4.3,7.2,9.3,9.4,15h0.5v-90.4h20.6v218.3H4470.4z M4356.1,2396.1
				c2.1,8.1,5.4,15.3,9.9,21.6s10.3,11.5,17.4,15.5s15.6,6,25.5,6c11,0,20.4-2,28-6s13.8-9.1,18.5-15.5c4.8-6.3,8.2-13.5,10.3-21.6
				c2.1-8.1,3.2-16.2,3.2-24.3s-1.1-16.3-3.2-24.3c-2.1-8.1-5.5-15.3-10.3-21.6c-4.7-6.3-10.9-11.5-18.5-15.5s-16.9-6-28-6
				c-9.9,0-18.4,2-25.5,6c-7,4-12.8,9.1-17.4,15.5c-4.5,6.3-7.8,13.5-9.9,21.6s-3.2,16.2-3.2,24.3
				C4352.9,2379.9,4354,2388.1,4356.1,2396.1z"/>
			<path d="M4617.4,2292.8v26.6h1.1c5.5-9.8,12.7-17.4,21.6-22.9s20.2-8.3,34.1-8.3c11.2,0,21.3,2.5,30.5,7.6
				c9.1,5.1,15.2,12.8,18.3,23.2c5-10.4,12.5-18.1,22.4-23.2c9.9-5.1,20.4-7.6,31.6-7.6c37.6,0,56.3,18.5,56.3,55.3v107.1h-20.6
				v-106.1c0-13.1-3-23-8.9-29.8c-6-6.8-16.4-10.2-31.4-10.2c-9,0-16.5,1.6-22.4,4.7c-6,3.2-10.7,7.4-14.2,12.7s-6,11.4-7.4,18.2
				s-2.2,13.9-2.2,21.3v89.3h-20.6v-107c0-5.3-0.6-10.3-1.8-15.1c-1.2-4.8-3.2-9-6-12.5c-2.7-3.6-6.4-6.4-11.1-8.4
				c-4.6-2.1-10.2-3.1-16.8-3.1c-8.8,0-16.5,1.5-23,4.4s-11.8,7-15.8,12.2c-4.1,5.2-7.1,11.3-9.1,18.4c-2,7-3,14.7-3,23.1v88.1
				h-20.6V2293h19V2292.8z"/>
			<path d="M5072.6,2450.6l0.1-30h-0.6c-2.2,5.1-5.4,9.8-9.8,14.1c-4.3,4.3-9.2,7.9-14.7,10.9c-5.5,2.9-11.4,5.2-17.7,6.9
				c-6.3,1.6-12.5,2.4-18.7,2.4c-13,0-24.3-2.2-33.9-6.6c-9.6-4.4-17.6-10.4-24-18.1c-6.4-7.6-11.1-16.5-14.2-26.6s-4.6-20.8-4.6-32
				s1.5-21.9,4.6-31.9c3.1-10.1,7.8-19,14.2-26.6c6.4-7.6,14.4-13.7,24-18.2s20.9-6.7,33.9-6.7c6.4,0,12.6,0.7,18.7,2.1
				c6.1,1.4,11.8,3.6,17.1,6.6c5.3,3,10,6.6,14,10.8c4.1,4.3,7.2,9.3,9.4,15h0.5v-90.4h20.6v218.3H5072.6z M4958.3,2396.1
				c2.1,8.1,5.4,15.3,9.9,21.6s10.3,11.5,17.4,15.5c7,4,15.5,6,25.5,6c11,0,20.3-2,28-6c7.6-4,13.8-9.1,18.5-15.5
				c4.7-6.3,8.1-13.5,10.3-21.6c2.1-8.1,3.1-16.2,3.1-24.3s-1-16.3-3.1-24.3c-2.1-8.1-5.5-15.3-10.3-21.6s-10.9-11.5-18.5-15.5
				s-17-6-28-6c-10,0-18.4,2-25.5,6s-12.9,9.1-17.4,15.5c-4.5,6.3-7.9,13.5-9.9,21.6c-2.1,8.1-3.2,16.2-3.2,24.3
				C4955.1,2379.9,4956.2,2388.1,4958.3,2396.1z"/>
		</g>
		<polygon class="st0" points="561.5,1543.3 561.5,2064 5231.4,2064 5231.4,1543.3 		"/>
		<path class="st1" d="M1072.6,1878.2c0,59.7,51.3,69.2,109.5,69.2H1293c59.1,0,118.5-4.9,118.5-72.2v-17.8
			c0-46.5-32.6-67.3-110.4-67.3H1183c-62.3,0-73.3-10.9-73.3-43.4c0-45,27.3-48.7,104.3-48.7h42.3c104.7,0,109.6,7.9,110.4,51.4
			h37.5v-9.5c0-48.7-24.8-72.2-123.8-72.2h-86c-82.3,0-122.2,14-122.2,76.3c0,72.5,39.9,79.3,161.7,79.3h75.7
			c49.7,0,64.4,8.7,64.4,43.1c0,39.3-17.1,50.6-75,50.6h-123.8c-49.7,0-65.2-12.8-65.2-39.6v-19.3h-37.5v20.1H1072.6z
			 M1833.9,1944.4h39.9v-240.3h0.8l179.6,240.3h28.5l179.6-240.3h0.8v240.3h39.9v-273.5h-62.4l-172.3,229.3L1896,1670.9h-62.3v273.5
			H1833.9z M2734.5,1944.4h39.9v-273.5h-39.9V1944.4L2734.5,1944.4z M3208.2,1944.4H3477v-30.2h-228.9v-243.3h-39.9V1944.4
			L3208.2,1944.4z M3874.2,1944.4h291.2v-30.2h-251.3v-95.6H4154v-30.2h-239.9V1701h249.7v-30.2h-289.6V1944.4L3874.2,1944.4z
			 M4573.2,1878.2c0,59.7,51.3,69.2,109.6,69.2h110.8c59.1,0,118.5-4.9,118.5-72.2v-17.8c0-46.5-32.6-67.3-110.4-67.3h-118.1
			c-62.4,0-73.3-10.9-73.3-43.4c0-45,27.3-48.7,104.3-48.7h42.4c104.7,0,109.6,7.9,110.4,51.4h37.4v-9.5
			c0-48.7-24.8-72.2-123.8-72.2h-86c-82.3,0-122.2,14-122.2,76.3c0,72.5,39.9,79.3,161.7,79.3h75.7c49.7,0,64.4,8.7,64.4,43.1
			c0,39.3-17.1,50.6-75,50.6h-123.8c-49.7,0-65.2-12.8-65.2-39.6v-19.3h-37.5v20.1H4573.2z"/>
	</g>
</g>
<g id="Die-Cut">
	<g>
		<path class="st2" d="M2527.8,1162.7c28.7,0,84.8-23.8,168.4-71.5c83.5-47.7,125.3-85.5,125.3-113.7c0-28.1-20.2-42.2-60.8-42.2
			c-42.2,0-77.2,7-105.1,21.1c-27.8,14.1-59.5,43-94.9,86.7c-35.5,43.7-53.2,77.3-53.2,100.8
			C2507.5,1150.2,2514.3,1156.4,2527.8,1162.7z"/>
		<path class="st2" d="M4425.7,1162.7c28.7,0,84.8-23.8,168.4-71.5s125.3-85.5,125.3-113.7c0-28.1-20.2-42.2-60.8-42.2
			c-42.2,0-77.2,7-105.1,21.1s-59.5,43-95,86.7s-53.2,77.3-53.2,100.8C4405.4,1150.2,4412.1,1156.4,4425.7,1162.7z"/>
		<path class="st2" d="M1844.6,1162.7c28.7,0,84.9-23.8,168.4-71.5c83.6-47.7,125.3-85.5,125.3-113.7c0-28.1-20.3-42.2-60.8-42.2
			c-42.2,0-77.2,7-105.1,21.1c-27.9,14.1-59.5,43-95,86.7c-35.4,43.7-53.1,77.3-53.1,100.8
			C1824.3,1150.2,1831.1,1156.4,1844.6,1162.7z"/>
		<g>
			<path d="M4903.9,1219c5,0-45.1,19.6-150.6,58.9c-105.4,39.3-192.8,58.9-261.9,58.9c-72.6,0-108.8-20.4-108.8-61.1
				c0-7.8,1.7-13.3,5-16.4c62.4-31.3,116.8-55.2,163.1-71.7c46.4-16.4,104.1-51.3,173.3-104.6c80.9-61.1,121.4-109.7,121.4-145.7
				c0-59.5-54.8-89.3-164.4-89.3c-59,0-112.2,13.3-159.4,39.9c-28.6,15.7-71.7,48.5-129,98.6c-18.5,17.2-35,43.8-49.3,79.8
				c-14.4,36-28.3,61-41.8,75.1c-5.1,6.3-34.5,29.8-88.5,70.4c-5.2,4-10.2,7.8-14.8,11.4c-48.4,20.4-78.5,33-90.4,37.9
				c-45.6,14.1-95.3,21.1-149.3,21.1c-23.7,0-48.1-2.3-73.4-7l-10.1-16.4c1.7-11,15.1-34.4,40.5-70.4c25.3-36,38-69.7,38-101
				c0-32.9-22-49.3-65.9-49.3c-47.4,0-120.8,29.4-220.5,88.1c-99.7,58.7-163.9,88-192.6,88c-20.3,0-30.4-12.5-30.4-37.6
				c0-9.4,14.9-30.1,44.7-62.2c29.8-32.1,44.7-56,44.7-71.7c0-31.3-34.6-47-103.7-47c-54,0-128.2,29.7-222.7,89.2
				c-69.1,43.8-138.3,88.4-207.5,133.8c-11,5.8-20.8,11-29.3,15.6c-25.1,9.8-63.4,24.3-114.7,43.4
				c-105.4,39.3-192.7,58.9-261.9,58.9c-72.6,0-108.8-20.4-108.8-61.1c0-7.8,1.7-13.3,5-16.4c62.4-31.3,116.8-55.2,163.1-71.7
				c46.4-16.4,104.1-51.3,173.3-104.6c80.9-61.1,121.4-109.7,121.4-145.7c0-59.5-54.8-89.3-164.4-89.3
				c-59.1,0-112.2,13.3-159.4,39.9c-28.7,15.7-71.7,48.5-129,98.6c-18.6,17.2-35,43.8-49.3,79.8c-14.4,36-28.3,61-41.8,75.1
				c-5.1,6.3-34.6,29.8-88.5,70.4c-11.2,8.6-21.1,16.3-29.7,23.2c-25.2,9.8-62.9,24.1-113.3,42.8c-105.4,39.3-192.7,58.9-261.9,58.9
				c-72.6,0-108.8-20.4-108.8-61.1c0-7.8,1.7-13.3,5.1-16.4c62.4-31.3,116.8-55.2,163.1-71.7c46.4-16.4,104.1-51.3,173.2-104.6
				c81-61.1,121.4-109.7,121.4-145.7c0-59.5-54.8-89.3-164.5-89.3c-59.1,0-112.1,13.3-159.4,39.9c-28.7,15.7-71.7,48.5-129,98.6
				c-18.6,17.2-35,43.8-49.3,79.8s-28.3,61-41.7,75.1c-5.1,6.3-34.6,29.8-88.5,70.4c-19.3,14.7-34.6,26.9-46,36.7
				c-13.1,6.9-24.1,13.5-32.9,19.8c-214.2,130.1-383.8,195.2-508.6,195.2c-64.1,0-154.4-31.3-270.8-93.9
				c-126.5-68.9-189.8-130-189.8-183.2c0-67.3,45.5-108,136.6-122.1c74.2-4.7,147.6-9.4,220.2-14.1c40.5-6.2,77.2-29,110.1-68.1
				s49.3-78.3,49.3-117.4s-0.9-63.4-2.6-72.8c-6.7-26.6-24.5-39.9-53.1-39.9c-45.5,0-80.1,21.9-103.7,65.7
				c-28.7,56.3-60.8,93.1-96.2,110.3c-60.7,29.7-113.1,44.6-156.9,44.6c-33.8,0-56.6-12.5-68.4-37.5
				c65.8-87.6,117.2-151.7,154.4-192.4c146.8-176.7,268.2-312.8,364.4-408.2c70.9-68.8,124.9-119.6,162-152.5
				c25.3-26.6,37.9-68.8,37.9-126.7c0-14.1-10.2-22.7-30.3-25.8c-89.5,36-200,135.3-331.5,298c-92.8,123.6-185.6,247.1-278.4,370.7
				c-38.8,42.2-69.1,74.3-91.1,96.2c-54,59.4-95.3,103.2-124,131.4c-64.1,76.6-109.7,136.1-136.6,178.3
				c-30.4,29.7-62.4,54.7-96.2,75.1c-10.1,4.7-46.4,22.7-108.8,54c-37.1,18.8-55.7,30.5-55.7,35.2c0,11,4.2,16.4,12.6,16.4
				c10.1,0,32.9-8.6,68.3-25.8c47.2-20.3,81.8-34.4,103.8-42.2c38.8-20.3,67.5-36,86-46.9c-205.8,260-308.7,426.1-308.7,498.1
				c0,12.5,5.1,21.9,15.2,28.2c11.8-1.6,19.8-4.7,24-9.4c4.3-4.7,8.9-13.3,13.9-25.8c21.9-53.3,70-130.8,144.3-232.7
				c92.8-125.3,148.4-202.9,167-232.6c35.4,68.9,85.2,122.1,149.3,159.6c5.1,3.1,72.5,36,202.5,98.6
				c97.8,46.9,179.6,70.4,245.4,70.4c92.8,0,182.2-19.6,268.2-58.7c50.6-23.5,120.6-61,210.1-112.7
				c84.6-49.2,137.6-85.3,158.8-108.2c18.6-13.4,39.2-30.5,61.8-51.5c6.7,138,64.1,207,172.1,207c62.4,0,130.7-10.6,205-31.7
				c74.2-21.2,133.7-49.4,178.4-84.7c3.6-2.9,7.1-5.6,10.4-8.2c30.1-10.2,69.2-37.6,117.4-82.3c6.7,138,64.1,207,172.1,207
				c62.4,0,130.7-10.6,205-31.7c74.2-21.2,133.7-49.4,178.4-84.7c8.5-6.7,16.2-12.8,23.1-18.3c12.8-6.5,23.5-11.9,32.2-15.9
				c67.4-39.1,105.3-60.2,113.8-63.4c33.7-14.1,76.7-21.1,128.9-21.1c13.5,0,20.2,7,20.2,21.1c0,42.2-25.2,85.9-75.7,131.3
				c-50.5,45.3-75.7,83.6-75.7,114.8c0,26.6,14.3,39.8,43,39.8c15.2,0,96.6-44.6,244.2-133.8s240.8-133.8,279.6-133.8
				c23.6,0,37.9,26.3,43,78.9c5,52.6,22.7,78.9,53.1,78.9c10.1,0,24.4,1.2,43,3.5c18.6,2.4,32.1,3.5,40.5,3.5
				c48.9,0,122.3-18,220.2-54c42.9-15.3,77.4-30.2,103.6-44.5c28.3-12.7,63.4-38.6,105.4-77.5c6.8,138,64.2,207,172.1,207
				c62.4,0,130.7-10.6,204.9-31.7c74.3-21.2,133.7-49.4,178.4-84.7c44.7-35.3,67.1-53.7,67.1-55.3
				C4911.5,1222.2,4908.9,1219,4903.9,1219z M4458.6,1043.2c35.5-43.8,67.1-72.7,95-86.7c27.9-14.1,62.9-21.1,105.1-21.1
				c40.5,0,60.8,14.1,60.8,42.2s-41.8,66-125.3,113.7s-139.7,71.5-168.4,71.5c-13.5-6.3-20.3-12.5-20.3-18.8
				C4405.4,1120.5,4423.1,1086.9,4458.6,1043.2z M2560.7,1043.2c35.4-43.8,67.1-72.7,94.9-86.7c27.9-14.1,62.9-21.1,105.1-21.1
				c40.5,0,60.8,14.1,60.8,42.2s-41.8,66-125.3,113.7c-83.6,47.7-139.7,71.5-168.4,71.5c-13.5-6.3-20.3-12.5-20.3-18.8
				C2507.5,1120.5,2525.2,1086.9,2560.7,1043.2z M1877.5,1043.2c35.5-43.8,67.1-72.7,95-86.7c27.9-14.1,62.9-21.1,105.1-21.1
				c40.5,0,60.8,14.1,60.8,42.2s-41.8,66-125.3,113.7s-139.7,71.5-168.4,71.5c-13.5-6.3-20.2-12.5-20.2-18.8
				C1824.3,1120.5,1842,1086.9,1877.5,1043.2z"/>
		</g>
	</g>
</g>
</svg>
